<?xml version="1.0" standalone="no"?>
<!DOCTYPE svg PUBLIC "-//W3C//DTD SVG 20010904//EN"
 "http://www.w3.org/TR/2001/REC-SVG-20010904/DTD/svg10.dtd">
<svg version="1.0" xmlns="http://www.w3.org/2000/svg"
 width="1600.000000pt" height="1600.000000pt" viewBox="0 0 1600.000000 1600.000000"
 preserveAspectRatio="xMidYMid meet">
<metadata>
Created by potrace 1.11, written by Peter Selinger 2001-2013
</metadata>
<g transform="translate(0.000000,1600.000000) scale(0.100000,-0.100000)"
fill="#000000" stroke="none">
<path d="M9917 11506 c-40 -15 -107 -62 -107 -76 0 -5 -6 -15 -12 -22 -21 -21
-36 -74 -34 -118 0 -22 -1 -40 -4 -40 -3 0 -5 -34 -5 -75 0 -41 3 -75 6 -75 3
0 3 -22 -1 -50 -4 -27 -3 -50 2 -50 4 0 4 -11 -1 -23 -5 -13 -5 -30 -1 -37 5
-8 6 -18 3 -23 -7 -12 -9 -147 -2 -147 4 0 3 -17 -1 -38 -4 -21 -3 -48 1 -60
5 -12 4 -24 -1 -27 -6 -3 -6 -15 0 -29 5 -13 6 -27 3 -30 -8 -7 -10 -126 -2
-126 3 0 3 -22 -1 -50 -4 -27 -3 -50 2 -50 4 0 4 -11 -1 -23 -5 -13 -5 -30 -1
-37 5 -8 6 -18 3 -23 -7 -12 -9 -147 -2 -147 4 0 3 -17 -1 -38 -4 -21 -3 -48
1 -60 5 -12 4 -24 -1 -27 -6 -3 -6 -15 0 -30 6 -16 6 -25 0 -25 -5 0 -7 -7 -4
-15 4 -11 -1 -15 -17 -15 -13 0 -32 0 -41 0 -16 0 -72 0 -115 0 -10 0 -46 0
-81 0 -34 1 -66 -1 -70 -4 -4 -3 -14 -1 -21 4 -8 4 -27 4 -42 0 -16 -5 -29 -6
-29 -2 0 8 -75 7 -89 -2 -5 -4 -12 -2 -15 3 -4 6 -18 6 -36 1 -17 -5 -30 -5
-30 -1 0 5 -18 5 -40 1 -22 -4 -42 -5 -45 -2 -7 7 -126 4 -133 -2 -2 -3 -14
-1 -26 3 -11 5 -30 5 -41 1 -11 -4 -24 -5 -29 -2 -14 8 -76 8 -76 0 0 -4 -13
-3 -30 2 -17 5 -32 5 -35 0 -3 -5 -16 -5 -28 -1 -12 5 -31 5 -43 1 -11 -5 -27
-5 -34 0 -7 4 -26 4 -41 0 -16 -5 -29 -6 -29 -2 0 8 -118 8 -126 -1 -3 -3 -18
-2 -32 2 -15 4 -38 5 -52 1 -14 -4 -34 -4 -45 0 -11 4 -30 4 -41 -1 -12 -4
-25 -5 -28 -2 -8 8 -76 9 -76 1 0 -4 -13 -3 -30 2 -17 5 -32 5 -35 0 -3 -5
-15 -6 -28 -1 -12 5 -31 5 -43 1 -11 -5 -27 -5 -34 0 -7 4 -26 4 -41 0 -16 -5
-29 -6 -29 -2 0 8 -118 8 -126 -1 -3 -3 -18 -2 -32 2 -15 4 -39 4 -54 0 -15
-4 -29 -4 -32 -1 -7 6 -133 5 -144 -2 -4 -3 -14 -1 -21 4 -8 4 -27 4 -42 0
-16 -5 -29 -6 -29 -2 0 8 -75 7 -89 -2 -5 -4 -12 -2 -15 3 -4 6 -18 6 -36 1
-17 -5 -30 -5 -30 -1 0 5 -18 5 -40 1 -22 -4 -42 -5 -45 -2 -2 3 -44 4 -92 3
-104 -2 -90 -2 -181 1 -39 2 -72 0 -72 -4 0 -4 -13 -3 -29 2 -15 4 -34 4 -40
0 -7 -4 -25 -5 -39 -3 -44 6 -148 7 -158 1 -5 -3 -18 -2 -29 2 -11 4 -30 4
-42 -1 -12 -5 -25 -5 -27 0 -3 4 -26 5 -51 1 -25 -4 -45 -4 -45 -1 0 5 -126 6
-140 0 -3 -1 -9 0 -15 1 -5 1 -47 2 -92 1 -107 -2 -97 -2 -181 1 -39 2 -72 0
-72 -4 0 -4 -13 -3 -29 2 -15 4 -34 4 -40 0 -7 -4 -25 -5 -39 -3 -37 6 -151 5
-160 -1 -4 -3 -14 -1 -21 4 -8 4 -27 4 -42 0 -16 -5 -29 -6 -29 -2 0 8 -75 7
-89 -2 -5 -4 -12 -2 -15 3 -4 6 -18 6 -36 1 -17 -5 -30 -5 -30 -1 0 5 -18 5
-40 1 -22 -4 -42 -5 -45 -2 -2 3 -44 4 -92 3 -104 -2 -90 -2 -181 1 -39 2 -72
0 -72 -4 0 -4 -13 -3 -29 2 -15 4 -34 4 -40 0 -7 -4 -25 -5 -39 -3 -44 6 -148
7 -158 1 -5 -3 -18 -2 -29 2 -11 4 -30 4 -42 -1 -12 -5 -25 -5 -27 0 -3 4 -26
5 -51 1 -25 -4 -45 -4 -45 -1 0 5 -126 6 -140 0 -3 -1 -9 0 -15 1 -5 1 -47 2
-92 1 -107 -2 -97 -2 -181 1 -39 2 -72 0 -72 -4 0 -4 -13 -3 -29 2 -15 4 -34
4 -41 0 -7 -4 -25 -4 -40 0 -15 4 -33 4 -41 0 -7 -5 -17 -6 -22 -3 -13 8 -147
9 -147 1 0 -4 -13 -3 -29 2 -15 4 -34 4 -40 0 -7 -4 -25 -5 -39 -3 -44 6 -148
7 -158 1 -5 -3 -18 -2 -29 2 -11 4 -30 4 -42 -1 -12 -5 -25 -5 -27 0 -3 4 -26
5 -51 1 -25 -4 -45 -4 -45 -1 0 5 -126 6 -140 0 -3 -1 -9 0 -15 1 -5 1 -47 2
-92 1 -107 -2 -97 -2 -181 1 -39 2 -72 0 -72 -4 0 -4 -13 -3 -29 2 -15 4 -34
4 -41 0 -7 -4 -25 -4 -40 0 -15 4 -33 4 -41 0 -7 -5 -17 -6 -22 -3 -13 8 -147
9 -147 1 0 -4 -13 -3 -29 2 -15 4 -34 4 -40 0 -7 -4 -25 -5 -39 -3 -44 6 -148
7 -158 1 -5 -3 -18 -2 -29 2 -11 4 -30 4 -42 -1 -12 -5 -25 -5 -27 0 -3 4 -26
5 -51 1 -25 -4 -45 -4 -45 -1 0 5 -126 6 -140 0 -3 -1 -9 0 -15 1 -5 1 -47 2
-92 1 -107 -2 -97 -2 -181 1 -39 2 -72 0 -72 -4 0 -4 -13 -3 -29 2 -15 4 -34
4 -41 0 -7 -4 -25 -4 -40 0 -15 4 -33 4 -41 0 -7 -5 -17 -6 -22 -3 -13 8 -147
9 -147 1 0 -4 -13 -3 -29 2 -15 4 -34 4 -40 0 -7 -4 -25 -5 -39 -3 -44 6 -148
7 -158 1 -5 -3 -18 -2 -29 2 -11 4 -30 4 -42 -1 -12 -5 -25 -5 -27 0 -3 4 -26
5 -51 1 -25 -4 -45 -4 -45 -1 0 5 -126 6 -140 0 -3 -1 -9 0 -15 1 -22 4 -185
5 -185 0 0 -3 -14 -5 -32 -4 -32 1 -98 -15 -108 -26 -3 -3 -17 -13 -32 -23
-15 -9 -40 -38 -55 -64 l-28 -48 -2 -2546 -3 -2545 21 -44 c26 -54 59 -86 117
-116 l47 -24 4935 1 4935 0 45 22 c85 40 133 111 134 199 1 32 4 58 8 58 4 0
3 14 -2 30 -5 17 -5 30 0 30 5 0 5 13 0 30 -5 17 -5 30 0 30 5 0 5 13 0 30 -5
17 -5 30 0 30 5 0 5 13 0 30 -5 17 -5 30 0 30 5 0 5 13 0 30 -5 17 -5 30 0 30
5 0 5 13 0 30 -5 17 -5 30 0 30 5 0 5 13 0 30 -5 17 -5 30 0 30 5 0 5 13 0 30
-5 17 -5 30 0 30 5 0 5 13 0 30 -5 17 -5 30 0 30 5 0 5 13 0 30 -5 17 -5 30 0
30 5 0 5 13 0 30 -5 17 -5 30 0 30 5 0 5 13 0 30 -5 17 -5 30 0 30 5 0 5 13 0
30 -5 17 -5 30 0 30 5 0 5 13 0 30 -5 17 -5 32 0 35 5 3 6 15 0 29 -4 12 -4
29 0 36 5 8 6 18 3 23 -7 12 -8 106 0 113 3 3 1 19 -3 35 -5 16 -6 29 -2 29 4
0 7 18 7 40 0 22 -3 40 -6 40 -4 0 -3 16 1 35 4 19 4 35 0 35 -5 0 -5 13 0 29
4 16 7 31 5 33 -2 2 12 3 31 3 19 0 34 -3 34 -7 0 -4 13 -3 30 2 17 5 32 5 35
0 3 -5 16 -5 30 0 15 6 27 6 30 0 3 -6 15 -6 29 0 13 5 26 6 29 4 8 -8 117
-10 117 -3 0 4 16 3 35 -1 19 -4 35 -4 35 0 0 4 18 4 40 0 22 -4 43 -4 45 1 3
4 18 4 34 -1 16 -4 32 -6 35 -3 7 8 105 7 113 -1 3 -3 13 -1 22 4 10 5 23 5
31 0 8 -5 21 -5 30 0 9 5 22 5 30 0 8 -5 21 -5 30 0 9 5 22 5 29 0 8 -4 27 -4
42 0 16 5 29 5 29 0 0 -5 13 -5 30 0 17 5 30 5 30 0 0 -5 13 -5 30 0 17 5 30
6 30 2 0 -4 29 -7 65 -7 36 0 65 3 65 7 0 4 6 5 14 2 20 -8 116 -10 116 -3 0
4 16 3 35 -1 19 -4 35 -4 35 0 0 4 18 4 40 0 22 -4 43 -4 45 1 3 4 18 4 34 -1
16 -4 32 -5 36 -2 7 8 102 5 115 -3 6 -3 10 -2 10 4 0 6 11 6 30 1 17 -5 30
-5 30 0 0 5 13 5 30 0 17 -5 30 -5 30 0 0 5 13 5 30 0 17 -5 30 -5 30 0 0 5
13 5 30 0 17 -5 30 -5 30 0 0 5 13 5 30 0 17 -5 30 -5 30 0 0 5 13 5 30 0 17
-5 30 -5 30 0 0 5 13 5 30 0 17 -5 30 -5 30 0 0 5 13 5 30 0 17 -5 30 -5 30 0
0 5 6 7 14 4 20 -8 116 -10 116 -3 0 4 16 3 35 -1 19 -4 35 -4 35 0 0 4 18 4
40 0 22 -4 43 -4 45 1 3 4 18 4 34 -1 16 -4 32 -6 35 -3 7 8 105 7 113 -1 3
-3 13 -1 22 4 10 5 23 5 31 0 8 -5 21 -5 30 0 9 5 22 5 30 0 8 -5 21 -5 30 0
9 5 22 5 29 0 8 -4 27 -4 42 0 16 5 29 5 29 0 0 -5 13 -5 30 0 17 5 30 5 30 0
0 -5 13 -5 30 0 17 5 30 6 30 2 0 -4 29 -7 65 -7 36 0 65 3 65 7 0 4 6 5 14 2
20 -8 116 -10 116 -3 0 4 16 3 35 -1 19 -4 35 -4 35 0 0 4 18 4 40 0 22 -4 43
-4 45 1 3 4 18 4 34 -1 16 -4 32 -5 36 -2 7 8 102 5 115 -3 6 -3 10 -2 10 4 0
6 11 6 30 1 17 -5 30 -5 30 0 0 5 13 5 30 0 17 -5 30 -5 30 0 0 5 13 5 30 0
17 -5 30 -5 30 0 0 5 13 5 30 0 17 -5 30 -5 30 0 0 5 13 5 30 0 17 -5 30 -5
30 0 0 5 13 5 30 0 17 -5 30 -5 30 0 0 5 13 5 30 0 17 -5 30 -5 30 0 0 5 13 5
30 0 17 -5 30 -5 30 0 0 5 6 7 14 4 20 -8 116 -10 116 -3 0 4 16 3 35 -1 19
-4 35 -4 35 0 0 4 18 4 40 0 22 -4 43 -4 45 1 3 4 18 4 34 -1 16 -4 32 -6 35
-3 7 8 105 7 113 -1 3 -3 13 -1 22 4 10 5 23 5 31 0 8 -5 21 -5 30 0 9 5 22 5
30 0 8 -5 21 -5 30 0 9 5 22 5 29 0 8 -4 27 -4 42 0 16 5 29 5 29 0 0 -5 13
-5 30 0 17 5 30 5 30 0 0 -5 13 -5 30 0 17 5 30 6 30 2 0 -4 29 -7 65 -7 36 0
65 3 65 7 0 4 6 5 14 2 20 -8 116 -10 116 -3 0 4 16 3 35 -1 19 -4 35 -4 35 0
0 4 18 4 40 0 22 -4 43 -4 45 1 3 4 18 4 34 -1 16 -4 32 -5 36 -2 5 5 85 6
111 1 5 -1 11 -1 14 0 3 1 22 4 42 6 59 6 116 43 163 107 35 47 35 26 35 2614
l0 2532 -26 51 c-31 60 -45 73 -110 106 l-49 25 -2930 -1 c-2424 0 -2936 -2
-2968 -13z m1683 -1586 c7 4 23 4 36 0 12 -5 25 -6 28 -3 3 3 62 6 131 6 69 0
128 -3 131 -6 3 -3 17 -2 30 3 14 6 26 6 29 0 3 -6 15 -6 30 0 15 6 27 6 30 0
3 -6 15 -6 30 0 13 5 27 6 29 1 3 -4 25 -5 49 -1 25 3 54 3 65 -1 12 -5 24 -4
27 1 3 5 18 5 35 0 17 -5 30 -6 30 -2 0 4 41 7 90 7 50 0 90 -4 90 -8 0 -5 5
-5 10 -2 18 11 70 -6 81 -26 11 -22 15 -324 4 -358 -11 -35 -39 -42 -172 -42
-71 0 -135 -4 -143 -9 -13 -8 -15 -97 -15 -667 -1 -390 3 -667 8 -680 9 -21
15 -22 151 -22 78 0 149 0 159 0 9 -1 25 -14 35 -30 15 -25 18 -52 17 -189 -1
-135 -4 -164 -19 -187 -10 -15 -20 -25 -23 -22 -2 3 -18 1 -34 -3 -16 -5 -29
-5 -29 0 0 5 -13 5 -30 0 -17 -5 -30 -5 -30 0 0 5 -13 5 -30 0 -17 -5 -32 -5
-35 0 -3 5 -16 5 -30 0 -15 -6 -27 -6 -30 0 -3 6 -15 6 -30 0 -13 -5 -26 -6
-29 -2 -3 6 -71 8 -71 2 0 -1 -19 -2 -43 -3 -23 -1 -42 1 -42 5 0 4 -13 3 -30
-2 -17 -5 -30 -5 -30 0 0 5 -13 5 -30 0 -17 -5 -30 -5 -30 0 0 5 -6 7 -14 4
-21 -8 -106 -10 -106 -2 0 4 -13 3 -30 -2 -17 -5 -30 -5 -30 0 0 5 -13 5 -30
0 -17 -5 -30 -5 -30 0 0 5 -6 7 -14 4 -21 -8 -106 -10 -106 -2 0 4 -13 3 -30
-2 -16 -5 -30 -6 -30 -2 0 4 -21 6 -47 5 -25 0 -55 4 -65 10 -17 11 -36 70
-29 92 7 24 5 145 -2 145 -5 0 -6 4 -3 8 3 5 6 37 7 72 4 103 2 102 246 101
67 0 97 4 107 14 11 12 14 122 14 677 0 403 -4 668 -9 675 -7 7 -56 11 -144
12 -141 1 -170 8 -179 46 -6 28 -6 304 0 337 6 30 68 62 95 48 8 -5 21 -5 29
0z m1483 -3 c8 8 193 7 207 -2 5 -3 10 -2 10 4 0 6 11 6 30 1 17 -5 30 -5 30
0 0 5 12 5 28 1 15 -4 32 -6 39 -4 28 10 64 -28 79 -82 1 -5 17 -48 34 -95 52
-140 185 -507 205 -565 7 -22 30 -85 50 -140 20 -55 38 -104 39 -110 2 -5 7
-21 13 -35 25 -58 53 -133 53 -142 0 -6 6 -24 14 -41 8 -18 17 -40 20 -50 3
-10 12 -17 19 -14 9 3 12 135 14 608 1 332 5 614 8 626 6 25 60 59 70 43 3 -5
15 -6 28 -1 12 5 32 5 44 0 13 -5 25 -4 28 1 3 6 15 6 30 0 15 -6 27 -6 30 0
3 6 15 6 30 0 15 -6 27 -6 30 0 3 5 16 6 28 2 12 -4 37 -7 54 -6 21 1 39 -6
50 -19 17 -18 18 -81 19 -1091 0 -589 -3 -1079 -8 -1088 -11 -23 -65 -51 -73
-38 -3 6 -15 6 -29 0 -13 -5 -27 -6 -30 -3 -8 8 -76 9 -76 1 0 -4 -13 -3 -30
2 -17 5 -30 5 -30 0 0 -5 -13 -5 -30 0 -18 5 -30 5 -30 0 0 -6 -10 -6 -23 -1
-13 5 -30 5 -37 1 -8 -5 -18 -6 -22 -4 -5 3 -23 7 -40 10 -18 2 -39 12 -48 21
-15 16 -59 111 -64 138 -2 5 -10 27 -19 49 -9 21 -17 44 -17 52 0 7 -4 16 -10
19 -5 3 -10 13 -10 21 0 8 -8 33 -19 57 -10 23 -29 69 -41 102 -12 33 -26 69
-30 80 -12 29 -55 141 -96 248 -19 51 -38 101 -43 112 -11 24 -55 138 -57 145
-1 8 -19 53 -43 114 -9 23 -15 26 -24 17 -9 -9 -12 -150 -12 -576 l-1 -564
-24 -21 c-17 -14 -34 -20 -53 -17 -15 2 -30 0 -33 -4 -2 -5 -16 -4 -29 1 -15
6 -27 6 -30 0 -3 -6 -15 -6 -30 0 -15 6 -27 6 -30 0 -3 -6 -15 -6 -30 0 -15 6
-27 6 -30 0 -3 -6 -15 -6 -30 0 -15 6 -25 6 -25 1 0 -13 -72 7 -90 25 -13 13
-15 151 -15 1077 -1 584 2 1073 5 1087 7 30 67 65 85 50 7 -6 15 -7 18 -3z
m-12483 -479 c0 4 23 7 50 7 28 0 50 -3 50 -7 0 -4 14 -3 30 2 17 5 30 5 30 0
0 -5 13 -5 30 0 17 5 30 5 30 0 0 -5 13 -5 30 0 18 5 32 5 35 -1 4 -5 13 -5
24 1 10 5 21 7 24 4 10 -10 42 -11 59 -3 10 5 19 5 23 0 3 -6 17 -6 35 -1 17
5 30 5 30 1 0 -4 23 -5 50 -1 28 4 50 3 50 -1 0 -4 14 -4 30 1 17 5 30 6 30 2
0 -4 16 -7 35 -7 19 0 35 3 35 7 0 4 11 3 25 -2 15 -6 26 -6 30 1 4 5 11 6 17
3 5 -3 29 -6 51 -5 156 5 227 5 227 -1 0 -4 14 -3 30 2 17 5 30 5 30 0 0 -5
13 -5 30 0 17 5 30 5 30 0 0 -5 13 -5 30 0 18 5 32 5 35 -1 4 -5 13 -5 24 1
10 5 21 7 24 4 10 -10 42 -11 59 -3 10 5 19 5 23 0 3 -6 17 -6 35 -1 17 5 30
5 30 1 0 -4 23 -5 50 -1 28 4 50 3 50 -1 0 -4 13 -4 30 1 17 5 30 6 30 2 0 -4
16 -7 35 -7 19 0 35 3 35 7 0 4 11 3 25 -2 14 -5 27 -5 30 0 3 5 18 5 34 0 16
-4 32 -6 35 -3 6 7 166 6 173 -1 3 -3 14 -1 24 4 11 6 20 6 24 1 3 -6 17 -6
35 -1 17 5 30 5 30 1 0 -4 23 -5 50 -1 28 4 50 3 50 -1 0 -4 14 -4 30 1 17 5
30 6 30 2 0 -4 16 -7 35 -7 19 0 35 3 35 7 0 4 11 3 25 -2 15 -6 26 -6 30 1 4
5 11 6 17 3 5 -3 29 -6 51 -5 156 5 227 5 227 -1 0 -4 14 -3 30 2 17 5 30 5
30 0 0 -5 13 -5 30 0 17 5 30 5 30 0 0 -5 13 -5 30 0 18 5 32 5 35 -1 4 -5 13
-5 24 1 10 5 21 7 24 4 10 -10 42 -11 59 -3 10 5 19 5 23 0 3 -6 17 -6 35 -1
17 5 30 5 30 1 0 -4 23 -5 50 -1 28 4 50 3 50 -1 0 -4 14 -4 30 1 17 5 30 6
30 2 0 -4 16 -7 35 -7 19 0 35 3 35 7 0 4 11 3 25 -2 15 -6 26 -6 30 1 4 5 11
6 17 3 5 -3 29 -6 51 -5 156 5 227 5 227 -1 0 -4 14 -3 30 2 17 5 30 5 30 0 0
-5 13 -5 30 0 17 5 30 5 30 0 0 -5 13 -5 30 0 18 5 32 5 35 -1 4 -5 13 -5 24
1 10 5 21 7 24 4 10 -10 42 -11 59 -3 10 5 19 5 23 0 3 -6 17 -6 35 -1 17 5
30 5 30 1 0 -4 23 -5 50 -1 28 4 50 3 50 -1 0 -4 14 -4 30 1 16 5 30 6 30 2 0
-4 16 -7 35 -7 19 0 35 3 35 7 0 4 11 3 25 -2 15 -6 26 -6 30 1 4 5 11 6 17 3
5 -3 29 -6 51 -5 156 5 227 5 227 -1 0 -4 14 -3 30 2 17 5 30 5 30 0 0 -5 13
-5 30 0 17 5 30 5 30 0 0 -5 13 -5 30 0 18 5 32 5 35 -1 4 -5 13 -5 24 1 10 5
21 7 24 4 10 -10 42 -11 59 -3 10 5 19 5 23 0 3 -6 17 -6 35 -1 17 5 30 5 30
1 0 -4 23 -5 50 -1 28 4 50 3 50 -1 0 -4 13 -4 30 1 16 5 30 6 30 2 0 -4 16
-7 35 -7 19 0 35 3 35 7 0 4 11 3 25 -2 15 -6 26 -6 30 1 4 5 11 6 17 3 5 -3
29 -6 51 -5 156 5 227 5 227 -1 0 -4 13 -3 30 2 17 5 30 5 30 0 0 -5 13 -5 30
0 17 5 30 5 30 0 0 -5 13 -5 30 0 18 5 32 5 35 -1 4 -5 13 -5 24 0 9 5 23 6
30 2 7 -5 28 -5 47 -1 19 4 34 4 34 0 0 -5 13 -5 30 0 17 5 30 5 30 0 0 -5 13
-5 30 0 17 5 30 5 30 0 0 -5 13 -5 30 0 18 5 32 5 35 -1 4 -5 13 -5 24 1 10 5
21 7 24 4 10 -10 42 -11 59 -3 10 5 19 5 23 0 3 -6 17 -6 35 -1 17 5 30 5 30
1 0 -4 23 -5 50 -1 28 4 50 3 50 -1 0 -4 13 -4 30 1 16 5 30 6 30 2 0 -4 16
-7 35 -7 19 0 35 3 35 7 0 4 11 3 25 -2 15 -6 26 -6 30 1 4 5 11 6 17 3 5 -3
29 -6 51 -5 156 5 227 5 227 -1 0 -4 13 -3 30 2 17 5 30 5 30 0 0 -5 13 -5 30
0 17 5 30 5 30 0 0 -5 13 -5 30 0 18 5 32 5 35 -1 4 -5 13 -5 24 0 9 5 23 6
31 1 7 -4 23 -4 36 0 12 5 24 6 28 3 5 -5 59 -7 81 -3 6 1 35 1 65 0 30 -1 61
-1 68 -1 15 1 38 1 55 0 6 0 21 0 32 1 11 0 36 0 55 -1 19 0 37 0 40 1 16 5
80 4 80 -2 0 -4 14 -3 30 2 19 5 30 5 30 -1 0 -6 4 -8 8 -5 8 5 69 7 132 5 19
0 40 0 45 1 6 1 35 1 65 0 30 -1 61 -1 68 -1 15 1 38 1 55 0 6 0 21 0 32 1 11
0 36 0 55 -1 19 0 37 0 40 1 16 5 80 4 80 -2 0 -4 14 -3 30 2 17 5 30 6 30 2
0 -8 85 -6 99 2 5 4 12 2 15 -3 4 -6 18 -6 36 -1 17 5 30 5 30 1 0 -4 23 -5
50 -1 28 4 50 3 50 -1 0 -4 14 -4 30 1 16 5 30 6 30 2 0 -4 16 -7 35 -7 19 0
35 3 35 7 0 4 11 3 25 -2 15 -6 26 -6 30 1 4 5 11 6 17 3 5 -3 29 -6 51 -5
156 5 227 5 227 -1 0 -4 14 -3 30 2 16 5 30 5 30 0 0 -4 8 -7 18 -6 12 1 17
-6 17 -26 -1 -16 2 -28 6 -28 4 0 4 -13 -1 -30 -5 -16 -6 -30 -2 -30 8 0 6
-105 -2 -126 -3 -8 -2 -14 3 -14 4 0 5 -22 1 -50 -4 -27 -3 -50 2 -50 4 0 4
-11 -1 -23 -5 -13 -5 -30 -1 -37 5 -8 5 -21 1 -29 -4 -9 -5 -29 -1 -46 3 -16
3 -45 -1 -62 -4 -18 -3 -33 1 -33 4 0 4 -17 0 -38 -4 -21 -3 -48 1 -60 5 -12
4 -24 -1 -27 -6 -3 -6 -15 0 -30 5 -13 5 -27 1 -30 -5 -3 -6 -20 -2 -37 4 -18
4 -45 0 -60 -4 -16 -4 -28 0 -28 4 0 5 -22 1 -50 -4 -27 -3 -50 2 -50 4 0 4
-11 -1 -23 -5 -13 -5 -30 -1 -37 5 -8 5 -21 1 -29 -4 -9 -5 -29 -1 -46 3 -16
3 -45 -1 -62 -4 -18 -3 -33 1 -33 4 0 4 -17 0 -38 -4 -21 -3 -48 1 -60 5 -12
4 -24 -1 -27 -6 -3 -6 -15 0 -30 5 -13 5 -27 1 -30 -5 -3 -6 -20 -2 -37 4 -18
4 -45 0 -60 -4 -16 -4 -28 0 -28 4 0 5 -22 1 -50 -4 -27 -3 -50 2 -50 4 0 4
-11 -1 -23 -5 -13 -5 -30 -1 -37 5 -8 5 -21 1 -29 -4 -9 -5 -29 -1 -46 3 -16
3 -45 -1 -62 -4 -18 -3 -33 1 -33 4 0 4 -17 0 -38 -4 -21 -3 -48 1 -60 5 -12
4 -24 -1 -27 -6 -3 -6 -15 0 -30 5 -13 5 -27 1 -30 -5 -3 -6 -20 -2 -37 4 -18
4 -45 0 -60 -4 -16 -4 -28 0 -28 4 0 5 -22 1 -50 -4 -27 -3 -50 2 -50 4 0 4
-11 -1 -23 -5 -13 -5 -30 -1 -37 5 -8 5 -21 1 -29 -4 -9 -5 -29 -1 -46 3 -16
3 -45 -1 -62 -4 -18 -3 -33 1 -33 4 0 4 -17 0 -38 -4 -21 -3 -48 1 -60 5 -12
4 -24 -1 -27 -6 -3 -6 -15 0 -30 5 -13 5 -27 1 -30 -5 -3 -6 -20 -2 -37 4 -18
4 -45 0 -60 -4 -16 -4 -28 0 -28 4 0 5 -22 1 -50 -4 -27 -3 -50 2 -50 4 0 4
-11 -1 -23 -5 -13 -5 -30 -1 -37 5 -8 5 -21 1 -29 -4 -9 -5 -29 -1 -46 3 -16
3 -45 -1 -62 -4 -18 -3 -33 1 -33 4 0 4 -17 0 -38 -4 -21 -3 -48 1 -60 5 -12
4 -24 -1 -27 -6 -3 -6 -15 0 -30 5 -13 5 -27 1 -30 -5 -3 -6 -20 -2 -37 4 -18
4 -45 0 -60 -4 -16 -4 -28 0 -28 4 0 5 -22 1 -50 -4 -27 -3 -50 2 -50 4 0 4
-11 -1 -23 -5 -13 -5 -30 -1 -37 5 -8 6 -18 3 -23 -8 -13 -9 -97 -1 -97 4 0 3
-13 -2 -30 -5 -16 -6 -30 -2 -30 6 0 7 -64 2 -80 -4 -12 -2 -71 3 -76 2 -3 1
-21 -3 -40 -4 -19 -4 -36 1 -39 4 -3 4 -16 -1 -29 -4 -12 -4 -29 0 -36 5 -8 6
-18 3 -23 -7 -12 -8 -96 0 -103 3 -3 2 -17 -3 -30 -6 -14 -6 -26 0 -29 5 -3 6
-15 0 -29 -4 -12 -4 -29 0 -36 5 -8 5 -21 0 -30 -5 -9 -5 -22 0 -30 14 -23
-22 -86 -43 -73 -5 3 -64 5 -131 4 -66 -1 -128 -2 -136 -2 -73 1 -269 1 -328
-1 -39 -2 -72 -1 -72 2 0 6 -98 3 -116 -4 -8 -3 -14 -2 -14 2 0 6 -91 7 -200
2 -19 -1 -73 -2 -120 -1 -47 0 -94 0 -105 0 -11 0 -66 1 -123 1 -56 0 -107 -2
-112 -5 -6 -3 -10 -3 -10 2 0 4 -17 7 -37 6 -21 -1 -51 -2 -68 -3 -16 -1 -67
-1 -113 0 -45 0 -87 -2 -92 -5 -6 -3 -10 -3 -10 2 0 4 -19 7 -42 5 -24 -1 -70
-2 -103 -1 -72 1 -176 -1 -268 -4 -37 -1 -67 0 -67 3 0 4 -17 4 -110 0 -14 -1
-71 -1 -127 0 -56 1 -107 -1 -113 -5 -5 -3 -10 -3 -10 2 0 4 -28 7 -62 5 -154
-6 -218 -7 -218 -2 0 6 -98 3 -116 -4 -8 -3 -14 -2 -14 2 0 6 -51 6 -268 0
-45 -2 -82 -1 -82 2 0 3 -17 4 -37 3 -21 -1 -51 -2 -68 -3 -16 -1 -67 -1 -113
0 -45 0 -87 -2 -92 -5 -6 -3 -10 -3 -10 2 0 4 -17 7 -37 6 -21 -1 -51 -2 -68
-3 -24 -1 -159 -1 -290 -1 -158 1 -273 1 -333 -1 -39 -2 -72 -1 -72 2 0 6 -98
3 -116 -4 -8 -3 -14 -2 -14 2 0 6 -91 7 -200 2 -19 -1 -73 -2 -120 -1 -47 0
-94 0 -105 0 -11 0 -66 1 -123 1 -56 0 -107 -2 -112 -5 -6 -3 -10 -3 -10 2 0
4 -17 7 -37 6 -21 -1 -51 -2 -68 -3 -16 -1 -67 -1 -113 0 -45 0 -87 -2 -92 -5
-6 -3 -10 -3 -10 2 0 4 -19 7 -42 5 -24 -1 -70 -2 -103 -1 -72 1 -176 -1 -268
-4 -37 -1 -67 0 -67 3 0 4 -17 4 -110 0 -14 -1 -71 -1 -127 0 -56 1 -107 -1
-113 -5 -5 -3 -10 -3 -10 2 0 4 -28 7 -62 5 -154 -6 -218 -7 -218 -2 0 6 -98
3 -116 -4 -8 -3 -14 -2 -14 2 0 6 -51 6 -268 0 -45 -2 -82 -1 -82 2 0 3 -17 4
-37 3 -21 -1 -51 -2 -68 -3 -16 -1 -67 -1 -113 0 -45 0 -87 -2 -92 -5 -6 -3
-10 -3 -10 2 0 4 -17 7 -37 6 -21 -1 -51 -2 -68 -3 -24 -1 -159 -1 -290 -1
-158 1 -273 1 -333 -1 -39 -2 -72 -1 -72 2 0 6 -98 3 -116 -4 -8 -3 -14 -2
-14 2 0 4 -39 6 -87 5 -49 -2 -126 -3 -173 -2 -47 0 -91 1 -97 0 -19 0 -104 0
-253 0 -25 0 -64 0 -87 0 -23 0 -45 5 -49 11 -10 17 -23 78 -15 78 7 0 4 107
-3 127 -3 7 -1 13 5 13 6 0 8 4 5 9 -3 5 -6 35 -6 67 0 33 0 67 0 77 0 38 0
54 1 104 1 28 -2 56 -5 62 -4 5 -2 12 3 15 5 4 6 18 2 34 -5 15 -5 36 -1 47 4
11 4 29 0 41 -5 11 -5 26 0 34 4 7 5 24 1 38 -4 14 -4 45 -1 69 4 23 4 47 0
54 -4 6 -4 25 -1 43 4 17 4 47 1 66 -3 19 -3 73 0 118 3 46 2 88 -1 94 -4 6
-3 24 0 42 4 17 4 47 1 66 -3 19 -3 63 0 97 3 34 2 73 -1 87 -4 14 -3 28 1 31
5 3 5 18 1 33 -5 15 -5 36 -1 47 4 11 4 29 0 41 -5 11 -5 27 0 34 4 7 5 24 1
39 -4 14 -6 35 -5 46 3 23 4 61 4 90 0 11 0 46 1 77 0 32 -2 62 -6 68 -3 5 -3
10 2 10 8 0 7 104 -1 127 -3 7 -1 13 5 13 6 0 8 4 5 9 -3 5 -6 35 -6 67 0 33
0 67 0 77 0 38 0 54 1 104 1 28 -2 56 -5 62 -4 5 -2 12 3 15 5 4 6 18 2 34 -5
15 -5 36 -1 47 4 11 4 29 0 41 -5 11 -5 26 0 34 4 7 5 24 1 38 -4 14 -4 45 -1
69 4 23 4 47 0 54 -4 6 -4 25 -1 43 4 17 4 47 1 66 -3 19 -3 73 0 118 3 46 2
88 -1 94 -4 6 -3 24 0 42 4 17 4 47 1 66 -3 19 -3 63 0 97 3 34 2 73 -1 87 -4
14 -3 28 1 31 5 3 5 18 1 33 -5 15 -5 36 -1 47 4 11 4 29 0 41 -5 11 -5 27 0
34 4 7 5 24 1 39 -4 14 -6 35 -5 46 3 23 4 61 4 90 0 11 0 46 1 77 0 32 -2 62
-6 68 -3 5 -3 10 2 10 8 0 7 104 -1 127 -3 7 -1 13 5 13 6 0 8 4 5 9 -3 5 -6
35 -6 67 0 33 0 68 0 79 0 29 1 57 3 80 2 11 0 35 -4 53 -4 17 -3 34 1 37 4 2
5 16 2 30 -5 31 15 58 40 52 10 -3 20 -1 23 4 3 4 17 4 30 -1 14 -5 25 -6 25
-2z"/>
<path d="M1748 8319 c-16 -4 -28 -5 -28 -2 0 3 -9 -6 -20 -20 -13 -16 -20 -40
-20 -64 1 -71 -1 -97 -5 -101 -2 -2 0 -15 5 -28 6 -14 6 -26 0 -29 -5 -3 -6
-16 -1 -28 4 -12 5 -33 1 -47 -4 -14 -3 -37 1 -52 4 -14 5 -29 3 -31 -3 -3 6
-14 20 -25 24 -18 41 -20 237 -20 142 0 215 -4 223 -12 8 -8 11 -252 11 -875
l0 -864 22 -20 c14 -13 34 -20 61 -19 22 0 45 -3 51 -6 6 -4 11 -3 11 3 0 6
11 6 30 1 17 -5 30 -5 30 0 0 5 13 5 30 0 17 -5 30 -5 30 0 0 5 13 5 30 0 17
-5 30 -5 30 0 0 5 13 5 29 0 34 -10 90 19 92 47 1 10 2 404 3 875 1 471 4 860
8 863 4 4 104 7 223 7 209 0 217 0 242 22 17 15 25 31 24 49 -1 15 -1 34 -1
42 0 8 0 26 0 40 -1 41 0 87 0 145 0 60 -4 96 -15 122 -7 17 -50 32 -65 23 -6
-4 -10 -3 -10 2 0 4 -25 8 -55 8 -30 0 -55 -2 -55 -5 0 -7 -69 -4 -76 3 -3 3
-17 2 -30 -3 -13 -5 -24 -6 -24 -2 0 4 -25 7 -55 7 -30 0 -55 -3 -55 -7 0 -4
-13 -3 -30 2 -18 5 -30 5 -30 0 0 -6 -10 -6 -25 0 -15 6 -27 6 -30 0 -3 -6
-15 -6 -30 0 -15 6 -27 6 -30 0 -3 -6 -15 -6 -30 0 -15 6 -27 6 -30 0 -4 -6
-13 -7 -23 -1 -11 6 -24 6 -34 0 -10 -6 -19 -6 -23 0 -4 7 -15 7 -30 1 -14 -5
-25 -6 -25 -2 0 4 -38 7 -85 7 -47 0 -85 -3 -85 -7 0 -4 -11 -3 -25 2 -15 6
-26 6 -30 0 -4 -6 -13 -7 -24 -1 -10 6 -23 6 -31 1 -8 -5 -21 -5 -30 0 -9 5
-23 4 -32 -1 -10 -6 -19 -6 -23 0 -3 7 -15 7 -30 1 -13 -5 -26 -6 -29 -2 -5 9
-74 7 -83 -2 -4 -3 -11 -2 -17 3 -6 4 -23 5 -38 0z"/>
<path d="M3487 8317 c-25 -6 -38 -17 -46 -35 -12 -30 -10 -1618 2 -1662 35
-129 76 -215 146 -300 93 -115 230 -202 386 -246 83 -23 289 -28 380 -9 252
53 458 222 542 445 14 36 27 74 29 85 2 11 7 34 10 50 11 53 10 1617 -1 1639
-10 19 -95 53 -95 38 0 -8 -68 -7 -76 1 -3 3 -17 2 -30 -3 -13 -5 -24 -6 -24
-2 0 8 -52 8 -66 -1 -6 -3 -16 -2 -23 3 -8 4 -25 5 -40 0 -14 -4 -31 -5 -38
-3 -6 2 -20 -8 -29 -23 -17 -25 -18 -79 -19 -813 -1 -680 -4 -791 -17 -821
-53 -123 -190 -181 -367 -156 -66 9 -119 35 -160 79 -48 51 -62 85 -67 162 -3
39 -7 76 -9 83 -2 6 1 12 7 12 7 0 7 4 -1 14 -7 8 -8 17 -3 20 5 3 6 27 2 53
-3 27 -3 60 0 73 4 14 3 37 -1 53 -5 17 -4 27 3 27 7 0 6 5 -1 14 -7 8 -8 17
-3 20 5 3 6 26 2 50 -4 25 -4 50 0 56 4 6 4 31 0 55 -4 27 -3 45 3 45 5 0 4 6
-2 14 -7 8 -8 17 -3 20 5 3 6 27 2 53 -3 27 -3 60 0 73 4 14 3 37 -1 53 -5 17
-4 27 3 27 7 0 6 5 -1 14 -7 8 -8 17 -3 20 5 3 6 26 2 50 -4 25 -4 50 0 56 4
6 4 31 0 55 -4 27 -3 45 3 45 5 0 4 6 -2 14 -7 8 -8 17 -3 20 5 3 6 27 2 53
-3 27 -3 60 0 73 4 14 3 37 -1 53 -5 17 -4 27 3 27 7 0 6 5 -1 14 -8 10 -9 16
-1 21 6 3 8 10 6 14 -5 7 -6 40 -6 131 0 42 -18 90 -34 91 -22 1 -48 8 -53 13
-3 3 -14 1 -24 -4 -11 -7 -20 -7 -24 0 -4 6 -15 6 -30 0 -14 -5 -25 -6 -25 -2
0 10 -160 9 -203 -1z"/>
<path d="M5395 8320 c-3 -5 -14 -6 -24 -3 -13 3 -29 -4 -43 -18 l-24 -24 1
-1076 c0 -1046 1 -1078 19 -1098 11 -12 21 -19 23 -17 2 2 20 0 39 -4 18 -4
34 -5 34 -1 0 3 16 6 35 6 19 0 35 -3 35 -7 0 -4 14 -3 30 2 17 5 30 6 30 2 0
-8 86 -6 99 3 5 3 12 1 16 -4 9 -15 64 8 77 32 8 15 11 186 10 584 0 309 3
565 7 568 5 2 13 -1 19 -8 9 -11 120 -291 167 -422 10 -27 22 -54 27 -60 4 -5
8 -15 8 -23 0 -8 6 -28 14 -45 13 -28 55 -137 191 -490 34 -90 55 -126 73
-128 4 0 16 -3 27 -5 28 -6 106 -7 112 -1 2 3 18 1 34 -3 16 -5 29 -5 29 0 0
5 13 5 30 0 17 -5 30 -5 30 0 0 5 13 5 30 0 17 -5 30 -5 30 0 0 5 13 5 29 0
16 -4 32 -6 35 -3 3 4 19 6 35 5 17 0 37 8 47 19 17 19 18 73 19 1092 1 673
-3 1080 -9 1095 -5 12 -19 25 -30 28 -35 8 -107 10 -112 2 -3 -4 -15 -3 -27 1
-12 5 -32 5 -44 0 -13 -5 -23 -5 -23 -1 0 8 -52 8 -66 -1 -6 -3 -16 -2 -24 3
-7 4 -23 4 -36 0 -12 -5 -24 -7 -26 -4 -3 2 -13 -5 -24 -17 -18 -20 -19 -45
-19 -634 0 -338 -4 -617 -8 -621 -16 -16 -41 37 -93 196 -8 25 -19 54 -24 65
-4 11 -18 47 -30 80 -12 33 -25 69 -30 80 -8 23 -52 145 -100 280 -17 50 -36
99 -41 110 -6 12 -11 27 -13 35 -2 8 -6 22 -9 30 -4 8 -36 96 -72 195 -36 98
-68 182 -73 186 -17 15 -69 26 -90 18 -12 -5 -22 -5 -22 -1 0 8 -52 8 -66 0
-5 -3 -18 -2 -29 2 -11 4 -30 4 -42 -1 -13 -5 -23 -5 -23 -1 0 8 -57 8 -66 0
-3 -3 -21 -2 -40 2 -19 4 -36 4 -39 0z"/>
<path d="M7175 8320 c-11 -4 -23 -6 -26 -4 -4 2 -15 -6 -25 -17 -18 -20 -19
-57 -19 -1097 -1 -1013 0 -1076 17 -1097 13 -17 27 -23 53 -21 19 1 35 -2 35
-6 0 -3 13 -3 29 2 15 4 34 4 41 0 7 -4 26 -4 41 0 16 5 29 5 29 0 0 -5 13 -5
30 0 17 5 30 5 30 0 0 -5 13 -5 30 0 17 5 30 6 30 2 0 -4 29 -7 65 -7 36 0 65
3 65 7 0 4 6 5 14 2 20 -8 116 -10 116 -3 0 4 16 3 35 -1 19 -4 35 -4 35 0 0
4 18 4 40 0 22 -4 43 -4 45 1 3 4 18 4 34 -1 16 -4 32 -5 36 -2 7 8 102 5 115
-3 6 -3 10 -2 10 4 0 6 11 6 30 1 17 -5 30 -5 30 0 0 5 13 5 30 0 17 -5 30 -5
30 0 0 5 13 5 30 0 17 -5 30 -5 30 0 0 5 13 5 29 0 15 -4 34 -4 42 0 7 5 17 6
22 3 5 -3 19 5 31 16 22 21 23 28 24 205 1 180 0 184 -23 204 -22 20 -36 20
-421 21 -289 0 -399 4 -405 12 -4 6 -7 103 -7 215 -1 182 1 205 16 212 9 5
179 8 377 7 379 -1 407 1 417 43 3 11 6 96 7 189 1 157 -1 171 -20 191 -11 12
-27 23 -37 23 -9 1 -180 2 -380 3 -308 1 -364 3 -372 16 -5 8 -9 104 -8 212 0
154 3 200 14 209 10 8 124 11 391 11 239 0 385 4 400 11 12 5 25 19 29 30 3
11 6 95 6 187 0 165 -7 208 -35 211 -7 1 -22 3 -34 4 -12 1 -28 5 -37 8 -8 3
-18 2 -21 -3 -4 -6 -13 -7 -23 -1 -11 6 -24 6 -34 0 -10 -6 -19 -6 -23 0 -4 7
-15 7 -30 1 -15 -6 -25 -6 -25 0 0 5 -12 5 -30 0 -16 -5 -30 -6 -30 -2 0 4
-38 7 -85 7 -47 0 -85 -3 -85 -7 0 -4 -11 -3 -25 2 -15 6 -27 6 -30 0 -3 -5
-15 -6 -28 -1 -12 5 -32 5 -44 0 -13 -5 -23 -5 -23 -1 0 9 -104 7 -119 -2 -6
-4 -11 -4 -11 1 0 9 -51 10 -66 1 -5 -3 -18 -2 -29 2 -11 4 -30 4 -42 -1 -13
-5 -23 -5 -23 -1 0 8 -52 8 -66 0 -5 -3 -18 -2 -29 2 -11 4 -30 4 -42 -1 -13
-5 -23 -5 -23 -1 0 9 -58 8 -66 -1 -4 -3 -14 -3 -23 2 -9 5 -25 5 -36 1z"/>
</g>
</svg>
